<svg height="512" viewBox="0 0 64 64" width="512" xmlns="http://www.w3.org/2000/svg"><path d="m61 17v28h-58v-28a1.973 1.973 0 0 1 1.93-2h28.07a12 12 0 0 0 24 0h2.07a1.973 1.973 0 0 1 1.93 2z" fill="#57a4ff"/><circle cx="45" cy="15" fill="#ff7956" r="12"/><circle cx="45" cy="15" fill="#ffeb99" r="2"/><path d="m41 57 3 4h-24l3-4h2 14z" fill="#ffeb99"/><path d="m38 51 1 6h-14l1-6h5z" fill="#ff7956"/><path d="m31 45h-28v4a1.973 1.973 0 0 0 1.93 2h54.14a1.973 1.973 0 0 0 1.93-2v-4z" fill="#ffeb99"/><path d="m31 31v8a2.006 2.006 0 0 1 -2 2h-18a2.006 2.006 0 0 1 -2-2v-8a2.006 2.006 0 0 1 2-2h18a2.006 2.006 0 0 1 2 2z" fill="#ffeb99"/><path d="m59.07 14h-1.121a12.987 12.987 0 0 0 -25.9 0h-27.119a2.969 2.969 0 0 0 -2.93 3v32a2.969 2.969 0 0 0 2.93 3h19.89l-.667 4h-1.153a1 1 0 0 0 -.8.4l-3 4a1 1 0 0 0 .8 1.6h24a1 1 0 0 0 .8-1.6l-3-4a1 1 0 0 0 -.8-.4h-1.153l-.667-4h19.89a2.969 2.969 0 0 0 2.93-3v-32a2.969 2.969 0 0 0 -2.93-3zm-14.07-10a11 11 0 1 1 -11 11 11.013 11.013 0 0 1 11-11zm-40.07 12h27.121a12.987 12.987 0 0 0 25.9 0h1.119a.98.98 0 0 1 .93 1v27h-56v-27a.98.98 0 0 1 .93-1zm37.07 44h-20l1.5-2h17zm-4.18-4h-11.64l.667-4h10.306zm21.25-6h-54.14a.98.98 0 0 1 -.93-1v-3h56v3a.98.98 0 0 1 -.93 1z"/><path d="m11 42h18a3 3 0 0 0 3-3v-8a3 3 0 0 0 -3-3h-8v-2a3 3 0 0 1 3-3h2.586l-1.293 1.293 1.414 1.414 3-3a1 1 0 0 0 0-1.414l-3-3-1.414 1.414 1.293 1.293h-2.586a5.006 5.006 0 0 0 -5 5v2h-8a3 3 0 0 0 -3 3v8a3 3 0 0 0 3 3zm-1-11a1 1 0 0 1 1-1h18a1 1 0 0 1 1 1v8a1 1 0 0 1 -1 1h-18a1 1 0 0 1 -1-1z"/><path d="m12 32h16v2h-16z"/><path d="m12 36h16v2h-16z"/><path d="m31 47h2v2h-2z"/><path d="m45 18a3 3 0 1 0 -3-3 3 3 0 0 0 3 3zm0-4a1 1 0 1 1 -1 1 1 1 0 0 1 1-1z"/><path d="m51 15h2a8.009 8.009 0 0 0 -8-8v2a6.006 6.006 0 0 1 6 6z"/><path d="m45 23v-2a6.006 6.006 0 0 1 -6-6h-2a8.009 8.009 0 0 0 8 8z"/></svg>